<svg width="26" height="25" viewBox="0 0 26 25" fill="none" xmlns="http://www.w3.org/2000/svg">
<rect x="1" y="0.5" width="24" height="24" rx="12" stroke="#231F20" stroke-width="0.96"/>
<path d="M9.02638 7.9972H10.0056V18.25H8.79598V10.6036H6.46318V9.6532L6.69358 9.6388C7.41358 9.5956 7.96078 9.4516 8.32078 9.2068C8.66638 8.9764 8.91118 8.5732 9.02638 7.9972ZM18.1621 17.098C17.5285 18.0196 16.6069 18.4804 15.3829 18.4804C14.1445 18.4804 13.2085 18.0196 12.6037 17.098C11.9701 16.1764 11.6677 14.8516 11.6677 13.1236C11.6677 11.41 11.9701 10.0852 12.6037 9.1492C13.2085 8.2276 14.1445 7.7668 15.3829 7.7668C16.6069 7.7668 17.5285 8.2276 18.1621 9.1492C18.7813 10.0852 19.0981 11.41 19.0981 13.1236C19.0981 14.8516 18.7813 16.1764 18.1621 17.098ZM12.9349 13.1236C12.9349 15.9748 13.7413 17.386 15.3829 17.386C17.0101 17.386 17.8309 15.9748 17.8309 13.1236C17.8309 10.2868 17.0101 8.8612 15.3829 8.8612C13.7413 8.8612 12.9349 10.2868 12.9349 13.1236Z" fill="#231F20"/>
</svg>
