<svg width="24" height="25" viewBox="0 0 24 25" fill="none" xmlns="http://www.w3.org/2000/svg">
<g clip-path="url(#clip0_4125_5052)">
<path d="M14.8784 21.1781C14.907 21.3834 14.7641 21.5728 14.5592 21.6014C13.7942 21.7082 13.0962 21.7621 12.4503 21.7621C11.54 21.7621 10.7323 21.6553 9.98515 21.4401C8.37593 20.9765 7.06859 19.9776 6.09922 18.4711C5.98718 18.2967 6.03734 18.0646 6.21172 17.9526C6.38609 17.8406 6.61812 17.8907 6.73015 18.0651C8.75703 21.2156 11.9234 21.2128 14.4552 20.8584C14.66 20.8298 14.8494 20.9728 14.8784 21.1781ZM22.5889 23.7768C21.7044 23.4225 20.8433 22.9486 20.5311 21.8878C20.502 21.7893 20.4341 21.7073 20.3431 21.6604C20.2522 21.6136 20.1458 21.6061 20.0487 21.6393C10.3395 25.0003 6.6725 22.0378 4.24578 20.0775C3.40297 19.3968 2.71625 18.8418 1.9625 18.7167C1.83968 17.8753 2.03187 16.8567 2.41531 15.3548L5.29109 4.07433L11.6136 1.33449L13.7867 4.10527L11.4045 6.8123L10.0798 5.83262C9.98703 5.76371 9.8675 5.74168 9.7564 5.77308L6.81312 6.59246C6.61343 6.64824 6.49672 6.85496 6.5525 7.05418C6.60828 7.25387 6.81453 7.37058 7.01422 7.3148L8.41062 6.92621L8.88265 13.8487C8.64781 14.0671 8.43172 14.3076 8.23718 14.5673C8.11297 14.7332 8.14718 14.9681 8.31312 15.0923C8.47906 15.2165 8.7139 15.1823 8.83812 15.0164C9.7264 13.8281 11.1453 13.1184 12.6341 13.1184C13.7783 13.1184 14.8433 13.5182 15.6762 14.212C15.6936 14.2317 15.7128 14.2504 15.7348 14.2668C15.7423 14.2725 15.7498 14.2762 15.7578 14.2814C16.3198 14.7717 16.7703 15.3989 17.0572 16.1301C17.1153 16.2778 17.2564 16.3682 17.4064 16.3682C17.4519 16.3682 17.4983 16.3598 17.5433 16.342C17.7359 16.2661 17.8311 16.0486 17.7552 15.8559C17.4673 15.1232 17.03 14.4689 16.4717 13.9265C17.51 12.7078 19.0531 11.9892 20.6652 11.9892C21.2422 11.9892 21.8047 12.0745 22.3367 12.2428C22.5341 12.3051 22.745 12.1959 22.8073 11.9986C22.8697 11.8012 22.7605 11.5903 22.5631 11.5279C21.9575 11.3362 21.3191 11.2392 20.6652 11.2392C18.8333 11.2392 17.0797 12.0562 15.8998 13.4414C15.8562 13.409 15.8122 13.3771 15.7677 13.3462C14.8456 12.7068 13.7619 12.3689 12.6336 12.3689C11.5442 12.3689 10.4867 12.6975 9.59609 13.2871L9.14797 6.7209L9.78078 6.54465L11.2353 7.62043C11.3919 7.73621 11.6112 7.71277 11.7397 7.56652L14.5555 4.36683C14.675 4.23137 14.6806 4.0298 14.5691 3.88777L12.0252 0.644022C11.9202 0.509959 11.7373 0.463553 11.5808 0.531522L4.82422 3.45933C4.71781 3.50527 4.63859 3.59855 4.61 3.71058L1.68922 15.1696C1.235 16.9467 1.03578 18.1078 1.28281 19.1517C1.32265 19.3204 1.47359 19.44 1.64703 19.4404C2.26531 19.4418 2.9314 19.98 3.77468 20.6611C4.97234 21.6286 6.6125 22.9537 9.19578 23.564C12.1494 24.262 15.6683 23.9034 19.9447 22.4671C20.4303 23.5912 21.4494 24.1279 22.3105 24.4729C22.3564 24.4912 22.4033 24.5001 22.4497 24.5001C22.5983 24.5001 22.7394 24.4111 22.798 24.2643C22.8748 24.0721 22.7816 23.8537 22.5889 23.7768Z" fill="black"/>
</g>
<defs>
<clipPath id="clip0_4125_5052">
<rect width="24" height="24" fill="white" transform="translate(0 0.5)"/>
</clipPath>
</defs>
</svg>
