<svg width="17" height="14" viewBox="0 0 17 14" fill="none" xmlns="http://www.w3.org/2000/svg">
<path d="M15.9512 9.28474C15.4802 8.30276 13.7951 6.93973 12.1672 5.62273C11.2592 4.88871 10.4012 4.19473 9.85417 3.64774C9.71716 3.50974 9.51217 3.46573 9.33119 3.53074C8.9942 3.65276 8.78617 3.74674 8.6222 3.81973C8.37222 3.93171 8.28822 3.96973 7.95119 4.00371C7.80217 4.01871 7.6682 4.09873 7.58519 4.22271C6.87817 5.2797 6.14617 5.1897 5.65717 5.02573C5.50117 4.97374 5.47319 4.90671 5.45819 4.84273C5.35319 4.40374 5.8802 3.38173 6.56317 2.69871C8.18819 1.07271 9.02617 0.665696 10.7962 1.45671C12.8042 2.3547 14.8162 3.05773 14.8362 3.06471C15.0992 3.1557 15.3822 3.0177 15.4732 2.7567C15.5632 2.4957 15.4262 2.2107 15.1652 2.11971C15.1451 2.11273 13.1732 1.42371 11.2052 0.542696C8.91217 -0.48232 7.65414 0.192681 5.85714 1.99071C5.17314 2.67471 4.24413 4.0587 4.48413 5.07373C4.58711 5.50573 4.89114 5.82574 5.34311 5.97471C6.47613 6.34873 7.5101 5.9907 8.28011 4.96873C8.59811 4.91974 8.77113 4.84774 9.0311 4.73074C9.12508 4.68874 9.2351 4.63976 9.38111 4.58074C9.95313 5.11774 10.7251 5.74273 11.5381 6.39973C13.0081 7.58871 14.6751 8.93674 15.0501 9.71674C15.2351 10.1017 15.0361 10.3527 14.9011 10.4677C14.7031 10.6377 14.4321 10.6917 14.2851 10.5887C14.1231 10.4777 13.9121 10.4707 13.7451 10.5707C13.5771 10.6707 13.4831 10.8597 13.5041 11.0537C13.5381 11.3717 13.2471 11.5537 13.1211 11.6167C12.8011 11.7787 12.4671 11.7507 12.3421 11.6347C12.2021 11.5047 12.0011 11.4667 11.8231 11.5327C11.6451 11.5997 11.5211 11.7637 11.5031 11.9537C11.4731 12.2817 11.2301 12.5967 10.9131 12.7197C10.7601 12.7777 10.5381 12.8127 10.3391 12.6307C10.2151 12.5187 10.0431 12.4757 9.88211 12.5147C9.71913 12.5547 9.58811 12.6727 9.53111 12.8297C9.51213 12.8797 9.4691 12.9997 9.00109 12.9997C8.66809 12.9997 8.06908 12.7747 7.77611 12.5807C7.42511 12.3497 5.22409 10.7077 3.32313 9.11567C3.05613 8.89067 2.59413 8.40865 2.18613 7.98265C1.82411 7.60465 1.49313 7.26166 1.32311 7.11766C1.11011 6.93766 0.795111 6.96466 0.618111 7.17668C0.440126 7.38766 0.466095 7.7037 0.677126 7.88168C0.832142 8.0127 1.13214 8.32966 1.46313 8.67466C1.90914 9.14065 2.37011 9.62266 2.68014 9.88268C4.54216 11.4417 6.78016 13.1247 7.22613 13.4177C7.59414 13.6597 8.38713 13.9997 9.00114 13.9997C9.49413 13.9997 9.87316 13.8867 10.1361 13.6657C10.4881 13.8027 10.8881 13.8037 11.2731 13.6537C11.7281 13.4777 12.1021 13.1227 12.3141 12.6927C12.7081 12.7767 13.1591 12.7177 13.5691 12.5117C13.9701 12.3097 14.2601 12.0007 14.4041 11.6397C14.8021 11.6607 15.2121 11.5197 15.5511 11.2287C16.1252 10.7377 16.2831 9.97376 15.9512 9.28474Z" fill="#231F20"/>
</svg>
