<svg width="26" height="25" viewBox="0 0 26 25" fill="none" xmlns="http://www.w3.org/2000/svg">
<rect x="1" y="0.5" width="24" height="24" rx="12" stroke="#231F20" stroke-width="0.96"/>
<path d="M11.312 14.5924H12.6944V15.6868H11.312V18.25H10.1024V15.6868H4.96156V14.5204L10.0016 7.9972H11.312V14.5924ZM10.1024 14.5924V9.5812L6.22876 14.5924H10.1024ZM17.119 11.5684C18.2134 11.5684 19.063 11.8996 19.6822 12.5332C20.287 13.1812 20.6038 14.0164 20.6038 15.0244C20.6038 16.0324 20.2726 16.8676 19.639 17.5012C18.9766 18.1636 18.1126 18.4804 17.047 18.4804C16.0678 18.4804 15.247 18.2068 14.6134 17.6308C13.9654 17.0836 13.6198 16.3348 13.5622 15.3988H14.7718C14.8294 16.018 15.0598 16.5076 15.4918 16.8532C15.9094 17.2132 16.4278 17.386 17.047 17.386C17.7094 17.386 18.2566 17.17 18.6886 16.738C19.1206 16.306 19.3366 15.73 19.3366 15.0244C19.3366 14.3332 19.1206 13.7572 18.6886 13.3252C18.2566 12.8932 17.7094 12.6628 17.047 12.6628C16.039 12.6628 15.3334 13.0804 14.9446 13.9012H13.8214L14.6854 7.9972H19.9846V9.0916H15.6646L15.175 12.3172C15.7222 11.8276 16.3702 11.5684 17.119 11.5684Z" fill="#231F20"/>
</svg>
