<svg width="24" height="25" viewBox="0 0 24 25" fill="none" xmlns="http://www.w3.org/2000/svg">
<path d="M15.5022 11.2739L14.9755 11.8134L14.2773 12.5292L13.1022 13.7334L12.3855 14.4677L11.6873 15.183L9.26546 17.6639L6.07866 20.929C6.07562 20.9323 6.06976 20.9285 6.07163 20.9243L7.39913 17.6637L8.99968 13.733H3.50429C3.5003 13.733 3.49866 13.7283 3.50124 13.7257L5.90148 11.2664L9.73796 7.33547L12.9248 4.07063C12.928 4.06735 12.9337 4.07086 12.9318 4.07508L11.6043 7.33571L10.0037 11.2666H15.4991C15.5029 11.2666 15.5048 11.2713 15.5022 11.2739Z" stroke="black" stroke-width="0.9375" stroke-miterlimit="10"/>
<path d="M19.9109 8.07984V16.9205C19.9109 17.3313 19.5779 17.6641 19.167 17.6641H9.26562L11.6872 15.1833L12.3854 14.468L13.1021 13.7337L14.2773 12.5295L14.9757 11.8137L15.5023 11.2741C15.5049 11.2716 15.503 11.2669 15.4993 11.2669H10.0039L11.6045 7.33594H19.167C19.5777 7.33594 19.9109 7.66922 19.9109 8.07984Z" stroke="black" stroke-width="0.9375" stroke-miterlimit="10"/>
<path d="M19.9141 14.0938H21.1323C21.3911 14.0938 21.6006 13.884 21.6006 13.6255V11.375C21.6006 11.1163 21.3909 10.9067 21.1323 10.9067H19.9141V14.0938Z" stroke="black" stroke-width="0.9375" stroke-miterlimit="10"/>
<path d="M2.40234 7.33594H6.36539" stroke="black" stroke-width="0.9375" stroke-miterlimit="10"/>
<path d="M3.72539 10.5195H2.40234" stroke="black" stroke-width="0.9375" stroke-miterlimit="10"/>
<path d="M6.11789 17.6641H2.40234" stroke="black" stroke-width="0.9375" stroke-miterlimit="10"/>
</svg>
