<svg width="26" height="25" viewBox="0 0 26 25" fill="none" xmlns="http://www.w3.org/2000/svg">
<rect x="1" y="0.5" width="24" height="24" rx="12" stroke="#231F20" stroke-width="0.96"/>
<path d="M10.4972 12.7924C11.6348 13.3972 12.2108 14.2468 12.2108 15.37C12.2108 16.306 11.8796 17.0548 11.2316 17.6164C10.5836 18.1924 9.73402 18.4804 8.68282 18.4804C7.53082 18.4804 6.65242 18.1924 6.01882 17.5876C5.38522 16.9972 5.08282 16.1908 5.09722 15.154H6.29242C6.30682 15.8884 6.52282 16.45 6.94042 16.8244C7.34362 17.1988 7.93402 17.386 8.68282 17.386C9.37402 17.386 9.92122 17.2132 10.3244 16.8388C10.7276 16.4788 10.9436 15.9892 10.9436 15.37C10.9436 14.7508 10.7276 14.2612 10.31 13.8868C9.89242 13.5124 9.33082 13.3252 8.61082 13.3252H7.84762V12.3172H8.53882C9.21562 12.3172 9.73402 12.1732 10.1084 11.8564C10.4828 11.554 10.67 11.122 10.67 10.5748C10.67 10.042 10.4828 9.6244 10.1084 9.322C9.73402 9.0196 9.24442 8.8612 8.61082 8.8612C7.96282 8.8612 7.44442 9.034 7.07002 9.3652C6.69562 9.6964 6.49402 10.186 6.46522 10.8196H5.25562C5.25562 9.898 5.55802 9.1492 6.16282 8.602C6.76762 8.0548 7.57402 7.7668 8.61082 7.7668C9.59002 7.7668 10.382 8.026 10.9868 8.5156C11.5916 9.0052 11.894 9.682 11.894 10.546C11.894 11.5252 11.4188 12.274 10.4972 12.7924ZM17.1133 11.5684C18.1789 11.5684 19.0429 11.8996 19.6765 12.5476C20.2957 13.21 20.6125 14.0308 20.6125 15.0244C20.6125 16.0324 20.2957 16.8532 19.6621 17.5012C18.9997 18.1636 18.1501 18.4804 17.0845 18.4804C16.1917 18.4804 15.4285 18.25 14.8237 17.7604C14.2621 17.314 13.8733 16.7236 13.6429 15.9748C13.4125 15.226 13.2973 14.29 13.2973 13.1668C13.2973 11.4676 13.6141 10.1428 14.2765 9.1924C14.9389 8.242 15.8749 7.7668 17.1133 7.7668C18.0061 7.7668 18.7405 8.0116 19.3453 8.5012C19.9357 8.9908 20.3101 9.6676 20.4685 10.5316H19.2877C19.1725 9.9988 18.9133 9.5812 18.5389 9.2932C18.1645 9.0052 17.6893 8.8612 17.1133 8.8612C15.3997 8.8612 14.5357 10.2292 14.5069 12.9652C14.7805 12.562 15.1549 12.2164 15.6445 11.9572C16.1341 11.698 16.6237 11.5684 17.1133 11.5684ZM15.4429 16.7236C15.8749 17.17 16.4221 17.386 17.0845 17.386C17.7469 17.386 18.2941 17.17 18.7117 16.7236C19.1293 16.2772 19.3453 15.7156 19.3453 15.0244C19.3453 14.3476 19.1293 13.786 18.7117 13.3252C18.2941 12.8932 17.7469 12.6628 17.0845 12.6628C16.4221 12.6628 15.8749 12.8788 15.4429 13.3108C15.0109 13.7716 14.7949 14.3332 14.7949 15.0244C14.7949 15.73 15.0109 16.2916 15.4429 16.7236Z" fill="#231F20"/>
</svg>
