<svg width="24" height="25" viewBox="0 0 24 25" fill="none" xmlns="http://www.w3.org/2000/svg">
<g clip-path="url(#clip0_4125_4939)">
<path d="M23.8153 16.872C23.4105 16.0268 22.4342 15.6116 21.5447 15.9064L15.8918 17.7788C15.7651 16.8974 15.0538 16.1856 14.1377 16.0876L11.547 15.8104L8.09371 14.9711C6.52362 14.5894 4.9052 15.1425 3.89303 16.3367L3.87218 16.2832C3.82708 16.1673 3.73779 16.0742 3.62399 16.0241C3.51018 15.9741 3.38114 15.9714 3.26532 16.0164L0.298795 17.1714C0.0575886 17.2653 -0.0618429 17.537 0.032043 17.7782L2.53185 24.1992C2.60404 24.3846 2.78112 24.498 2.96875 24.498C3.02528 24.498 3.08284 24.4877 3.13867 24.466L6.10519 23.3111C6.22101 23.266 6.31419 23.1767 6.36425 23.0629C6.40766 22.9641 6.41534 22.8539 6.38717 22.7508L13.1417 22.758H13.1518C14.1977 22.758 15.2182 22.5555 16.1848 22.156L22.8445 19.4041C23.3234 19.2062 23.6892 18.8308 23.8747 18.347C24.0603 17.8631 24.0392 17.3393 23.8153 16.872ZM3.23546 23.4223L1.07576 17.8749L3.16866 17.06L5.32837 22.6075L3.23546 23.4223ZM22.9995 18.0113C22.9072 18.2522 22.725 18.4391 22.4867 18.5376L15.8269 21.2896C14.9744 21.6419 14.0744 21.8205 13.1519 21.8205C13.1489 21.8205 13.1459 21.8205 13.1429 21.8205L6.02504 21.8129L4.29797 17.3767C5.02998 16.1549 6.47572 15.5425 7.87233 15.8821L11.3557 16.7288C11.3757 16.7336 11.396 16.7371 11.4165 16.7393L14.038 17.0198C14.5892 17.0788 15.0001 17.5588 14.9734 18.1125C14.9598 18.3946 14.8365 18.6537 14.6263 18.8423C14.4161 19.0308 14.1453 19.1256 13.8632 19.1083L9.65612 18.854C9.39766 18.8382 9.17558 19.0352 9.15997 19.2936C9.14436 19.552 9.34118 19.7741 9.59954 19.7897C9.59954 19.7897 13.8886 20.0477 13.9294 20.0477C14.4188 20.0477 14.8847 19.8699 15.2523 19.5401C15.4815 19.3345 15.6558 19.0845 15.7676 18.8076L21.8395 16.7963C22.2823 16.6496 22.7684 16.8563 22.97 17.2771C23.0814 17.5097 23.0919 17.7704 22.9995 18.0113Z" fill="#231F20"/>
<path d="M3.27699 1.84292C4.29853 2.07981 5.29781 2.38593 6.26901 2.75693C6.27824 4.25114 6.73863 5.73564 7.58187 6.97087C7.72783 7.18466 8.01947 7.23964 8.23325 7.09373C8.44704 6.94777 8.50207 6.65612 8.35611 6.44234C7.69169 5.46908 7.29866 4.31901 7.22062 3.14513C10.9548 4.76688 14.2245 7.36882 16.6649 10.7098C16.7567 10.8354 16.8992 10.902 17.0438 10.902C17.1397 10.902 17.2365 10.8727 17.3198 10.8118C17.5289 10.6591 17.5745 10.3659 17.4219 10.1568C14.8944 6.69662 11.5115 3.99821 7.64786 2.30888C9.33743 1.14414 11.6174 1.13664 13.3244 2.36526L13.6963 2.63291L13.3719 2.77296C13.1773 2.85705 13.0633 3.06132 13.094 3.27112C13.1247 3.48097 13.2924 3.64404 13.503 3.66879C15.5231 3.90634 17.2466 5.22243 18.023 7.07718L17.3972 7.20111C17.2031 7.23955 17.054 7.39573 17.0247 7.59142C16.9953 7.78711 17.0921 7.98013 17.2664 8.07379C18.0087 8.47272 18.6239 9.06435 19.0455 9.78468C19.6147 10.7575 20.4326 11.5775 21.3968 12.1541C20.4087 12.691 19.3363 13.0311 18.1984 13.1674C15.9173 13.4407 13.8391 11.8071 13.5659 9.5259C13.5395 9.30537 13.3619 9.13367 13.1406 9.11464C12.9194 9.09575 12.7151 9.23454 12.6514 9.44734L12.4601 10.0867L11.3465 9.19948C11.1441 9.03824 10.8492 9.07156 10.6878 9.27401C10.5265 9.4765 10.5599 9.77137 10.7624 9.93271L12.4184 11.2521C12.5401 11.3491 12.7021 11.3793 12.8506 11.3327C12.9395 11.3049 13.0166 11.2518 13.0738 11.1816C13.8974 12.9504 15.6935 14.1349 17.6991 14.1347C17.9007 14.1347 18.1049 14.1227 18.3099 14.0982C19.8703 13.9113 21.3198 13.3771 22.6181 12.5105C22.761 12.4151 22.8403 12.2491 22.8246 12.078C22.809 11.9068 22.701 11.758 22.5432 11.6901C21.4256 11.209 20.4708 10.3641 19.8546 9.31118C19.5423 8.77748 19.1422 8.30248 18.6728 7.90406L18.7414 7.89047C18.8719 7.86464 18.9853 7.78454 19.0533 7.67012C19.1212 7.5557 19.1374 7.41785 19.0977 7.29083C18.4699 5.2821 16.9238 3.72345 14.9863 3.05237C15.0528 2.9799 15.0961 2.88705 15.1071 2.7859C15.1253 2.6181 15.0519 2.45348 14.9149 2.35491L13.872 1.60429C11.6771 0.0244456 8.68576 0.160845 6.64502 1.8971C5.621 1.50375 4.56683 1.17962 3.48881 0.929603C3.23659 0.870871 2.98479 1.02818 2.92629 1.2803C2.86779 1.53262 3.02482 1.78442 3.27699 1.84292Z" fill="#231F20"/>
<path d="M9.40623 8.71724C9.6651 8.71724 9.87495 8.50738 9.87495 8.24851C9.87495 7.98964 9.6651 7.77979 9.40623 7.77979C9.14736 7.77979 8.9375 7.98964 8.9375 8.24851C8.9375 8.50738 9.14736 8.71724 9.40623 8.71724Z" fill="#231F20"/>
</g>
<defs>
<clipPath id="clip0_4125_4939">
<rect width="24" height="24" fill="white" transform="translate(0 0.5)"/>
</clipPath>
</defs>
</svg>
