<svg width="24" height="25" viewBox="0 0 24 25" fill="none" xmlns="http://www.w3.org/2000/svg">
<g clip-path="url(#clip0_4125_5036)">
<path d="M12.375 0.620117C14.1315 0.620117 15.8159 0.992444 17.3887 1.72656L17.7021 1.87793C18.7924 2.4256 19.8014 3.14827 20.6787 4.00488L20.8604 4.18262L20.8818 3.92969L20.9785 2.81836L22.1445 2.92188L21.8408 6.37695L18.3857 6.07324L18.4883 4.9082L19.7412 5.01855L20.0762 5.04785L19.8359 4.81348C17.8493 2.8765 15.2023 1.79004 12.375 1.79004C6.46931 1.79004 1.66504 6.59431 1.66504 12.5C1.66504 18.4057 6.46931 23.21 12.375 23.21C16.7902 23.21 20.7911 20.4553 22.373 16.3428L23.4688 16.751C22.6791 18.8117 21.3474 20.5955 19.5928 21.9375L19.2295 22.2041C17.2179 23.6275 14.8478 24.3799 12.375 24.3799C9.20156 24.3799 6.21858 23.1444 3.97461 20.9004C1.73063 18.6564 0.495117 15.6734 0.495117 12.5C0.495117 9.32656 1.73063 6.34358 3.97461 4.09961C6.21858 1.85563 9.20156 0.620117 12.375 0.620117Z" fill="black" stroke="#F4F4F4" stroke-width="0.24"/>
<path d="M12.958 8.26855V11.915H15.0723V13.085H11.7881V8.26855H12.958Z" fill="black" stroke="#F4F4F4" stroke-width="0.24"/>
<path d="M12.3564 5.25488C16.3509 5.25488 19.6013 8.50458 19.6016 12.499C19.6016 16.4937 16.3511 19.7441 12.3564 19.7441C8.362 19.7439 5.1123 16.4935 5.1123 12.499C5.11254 8.50472 8.36214 5.25511 12.3564 5.25488ZM12.3564 6.4248C9.00706 6.42504 6.28246 9.14945 6.28223 12.499C6.28223 15.8488 9.00692 18.574 12.3564 18.5742C15.7063 18.5742 18.4316 15.8489 18.4316 12.499C18.4314 9.14931 15.7062 6.4248 12.3564 6.4248Z" fill="black" stroke="#F4F4F4" stroke-width="0.24"/>
</g>
<defs>
<clipPath id="clip0_4125_5036">
<rect width="24" height="24" fill="white" transform="translate(0 0.5)"/>
</clipPath>
</defs>
</svg>
