<svg width="32" height="32" viewBox="0 0 32 32" fill="none" xmlns="http://www.w3.org/2000/svg">
<path opacity="0.2" d="M30.7656 15.0156V22.8906C30.7656 23.1517 30.6619 23.4021 30.4773 23.5867C30.2927 23.7713 30.0423 23.875 29.7812 23.875H26.8281C26.8281 23.0918 26.517 22.3406 25.9632 21.7868C25.4094 21.233 24.6582 20.9219 23.875 20.9219C23.0918 20.9219 22.3406 21.233 21.7868 21.7868C21.233 22.3406 20.9219 23.0918 20.9219 23.875H13.0469C13.0469 23.0918 12.7357 22.3406 12.1819 21.7868C11.6281 21.233 10.877 20.9219 10.0938 20.9219C9.31053 20.9219 8.55939 21.233 8.00558 21.7868C7.45176 22.3406 7.14062 23.0918 7.14062 23.875H4.1875C3.92643 23.875 3.67605 23.7713 3.49144 23.5867C3.30684 23.4021 3.20313 23.1517 3.20312 22.8906V17.9688H22.8906V15.0156H30.7656Z" fill="#EC3B26"/>
<path d="M31.6786 14.6465L29.956 10.3398C29.8098 9.97547 29.5576 9.66337 29.2321 9.44398C28.9065 9.22459 28.5226 9.10802 28.13 9.10938H23.875V8.125C23.875 7.86393 23.7713 7.61355 23.5867 7.42894C23.4021 7.24434 23.1517 7.14062 22.8906 7.14062H4.1875C3.66535 7.14063 3.1646 7.34805 2.79538 7.71726C2.42617 8.08647 2.21875 8.58723 2.21875 9.10938V22.8906C2.21875 23.4128 2.42617 23.9135 2.79538 24.2827C3.1646 24.652 3.66535 24.8594 4.1875 24.8594H6.2793C6.49616 25.7063 6.98874 26.4571 7.67938 26.9931C8.37003 27.5292 9.21946 27.8202 10.0938 27.8202C10.968 27.8202 11.8175 27.5292 12.5081 26.9931C13.1988 26.4571 13.6913 25.7063 13.9082 24.8594H20.0605C20.2774 25.7063 20.77 26.4571 21.4606 26.9931C22.1513 27.5292 23.0007 27.8202 23.875 27.8202C24.7493 27.8202 25.5987 27.5292 26.2894 26.9931C26.98 26.4571 27.4726 25.7063 27.6895 24.8594H29.7812C30.3034 24.8594 30.8042 24.652 31.1734 24.2827C31.5426 23.9135 31.75 23.4128 31.75 22.8906V15.0156C31.7503 14.8891 31.7261 14.7638 31.6786 14.6465ZM23.875 11.0781H28.13L29.3112 14.0312H23.875V11.0781ZM4.1875 9.10938H21.9062V16.9844H4.1875V9.10938ZM10.0938 25.8438C9.70437 25.8438 9.32373 25.7283 8.99997 25.512C8.67621 25.2956 8.42387 24.9882 8.27486 24.6284C8.12585 24.2687 8.08686 23.8728 8.16283 23.4909C8.23879 23.109 8.4263 22.7582 8.70163 22.4829C8.97697 22.2075 9.32777 22.02 9.70967 21.9441C10.0916 21.8681 10.4874 21.9071 10.8472 22.0561C11.2069 22.2051 11.5144 22.4575 11.7307 22.7812C11.947 23.105 12.0625 23.4856 12.0625 23.875C12.0625 24.3971 11.8551 24.8979 11.4859 25.2671C11.1167 25.6363 10.6159 25.8438 10.0938 25.8438ZM20.0605 22.8906H13.9082C13.6913 22.0437 13.1988 21.2929 12.5081 20.7569C11.8175 20.2208 10.968 19.9298 10.0938 19.9298C9.21946 19.9298 8.37003 20.2208 7.67938 20.7569C6.98874 21.2929 6.49616 22.0437 6.2793 22.8906H4.1875V18.9531H21.9062V20.4678C21.4536 20.7295 21.0574 21.0783 20.7406 21.4942C20.4237 21.9101 20.1926 22.3848 20.0605 22.8906ZM23.875 25.8438C23.4856 25.8438 23.105 25.7283 22.7812 25.512C22.4575 25.2956 22.2051 24.9882 22.0561 24.6284C21.9071 24.2687 21.8681 23.8728 21.9441 23.4909C22.02 23.109 22.2076 22.7582 22.4829 22.4829C22.7582 22.2075 23.109 22.02 23.4909 21.9441C23.8728 21.8681 24.2687 21.9071 24.6284 22.0561C24.9882 22.2051 25.2956 22.4575 25.512 22.7812C25.7283 23.105 25.8438 23.4856 25.8438 23.875C25.8438 24.3971 25.6363 24.8979 25.2671 25.2671C24.8979 25.6363 24.3971 25.8438 23.875 25.8438ZM29.7812 22.8906H27.6895C27.47 22.0457 26.9765 21.2975 26.2862 20.7631C25.596 20.2287 24.7479 19.9383 23.875 19.9375V16H29.7812V22.8906Z" fill="#EC3B26"/>
</svg>
