<svg width="22" height="22" viewBox="0 0 22 22" fill="none" xmlns="http://www.w3.org/2000/svg">
<path fill-rule="evenodd" clip-rule="evenodd" d="M7.46146 2.45729C7.901 1.95024 8.44451 1.5437 9.05507 1.26529C9.66563 0.986882 10.329 0.843114 11 0.843752C12.4135 0.843752 13.6802 1.46875 14.5385 2.45729C15.208 2.40949 15.8799 2.50634 16.5087 2.74126C17.1374 2.97618 17.7082 3.34366 18.1823 3.81875C18.6572 4.29278 19.0246 4.86341 19.2595 5.49194C19.4944 6.12046 19.5913 6.79216 19.5438 7.46146C20.0506 7.9011 20.457 8.44465 20.7352 9.0552C21.0134 9.66576 21.157 10.329 21.1563 11C21.1569 11.671 21.0131 12.3344 20.7347 12.9449C20.4563 13.5555 20.0498 14.099 19.5427 14.5385C19.5903 15.2078 19.4933 15.8795 19.2584 16.5081C19.0235 17.1366 18.6561 17.7072 18.1813 18.1812C17.7072 18.6561 17.1366 19.0235 16.5081 19.2584C15.8795 19.4933 15.2078 19.5903 14.5385 19.5427C14.099 20.0498 13.5555 20.4563 12.9449 20.7347C12.3344 21.0131 11.671 21.1569 11 21.1563C10.329 21.1569 9.66563 21.0131 9.05507 20.7347C8.44451 20.4563 7.901 20.0498 7.46146 19.5427C6.79206 19.5906 6.12019 19.494 5.49147 19.2592C4.86275 19.0245 4.2919 18.6572 3.81771 18.1823C3.34268 17.7082 2.97523 17.1373 2.74031 16.5086C2.5054 15.8799 2.40852 15.208 2.45625 14.5385C1.94939 14.0989 1.54305 13.5554 1.26482 12.9448C0.986591 12.3342 0.842986 11.671 0.843753 11C0.843753 9.58646 1.46875 8.31979 2.45729 7.46146C2.40964 6.79215 2.50657 6.12043 2.74148 5.4919C2.9764 4.86336 3.3438 4.29274 3.81875 3.81875C4.29274 3.3438 4.86337 2.97639 5.4919 2.74148C6.12043 2.50657 6.79216 2.40964 7.46146 2.45729ZM14.7604 9.11042C14.8229 9.02714 14.8681 8.93221 14.8934 8.8312C14.9187 8.73019 14.9236 8.62515 14.9077 8.52225C14.8918 8.41934 14.8555 8.32065 14.8009 8.23198C14.7463 8.1433 14.6746 8.06643 14.5899 8.00589C14.5051 7.94534 14.4092 7.90234 14.3076 7.87941C14.206 7.85648 14.1009 7.85408 13.9984 7.87236C13.8959 7.89064 13.7981 7.92922 13.7107 7.98585C13.6233 8.04247 13.5481 8.11599 13.4896 8.20209L10.1188 12.9208L8.42709 11.2292C8.27899 11.0912 8.08311 11.016 7.88071 11.0196C7.67831 11.0232 7.4852 11.1052 7.34206 11.2483C7.19893 11.3915 7.11693 11.5846 7.11336 11.787C7.10979 11.9894 7.18492 12.1852 7.32292 12.3333L9.66667 14.6771C9.74687 14.7572 9.84354 14.8189 9.94999 14.858C10.0564 14.897 10.1701 14.9124 10.2831 14.9031C10.3961 14.8937 10.5057 14.8599 10.6043 14.804C10.7029 14.7481 10.7882 14.6714 10.8542 14.5792L14.7604 9.11042Z" fill="white"/>
</svg>
