<svg width="32" height="32" viewBox="0 0 32 32" fill="none" xmlns="http://www.w3.org/2000/svg">
<path opacity="0.2" d="M26.8281 7.14062V14.0312C26.8281 25.8438 16 28.7969 16 28.7969C16 28.7969 5.17188 25.8438 5.17188 14.0312V7.14062C5.17188 6.87955 5.27559 6.62917 5.46019 6.44457C5.6448 6.25996 5.89518 6.15625 6.15625 6.15625H25.8438C26.1048 6.15625 26.3552 6.25996 26.5398 6.44457C26.7244 6.62917 26.8281 6.87955 26.8281 7.14062Z" fill="#EC3B26"/>
<path d="M10.1639 14.6465C10.2122 14.5263 10.2837 14.4168 10.3744 14.3243C10.4651 14.2318 10.5732 14.1582 10.6924 14.1075C10.8117 14.0569 10.9397 14.0303 11.0692 14.0292C11.1988 14.0282 11.3272 14.0527 11.4473 14.1014L15.0156 15.53V12.0625C15.0156 11.8014 15.1193 11.551 15.3039 11.3664C15.4885 11.1818 15.7389 11.0781 16 11.0781C16.2611 11.0781 16.5115 11.1818 16.6961 11.3664C16.8807 11.551 16.9844 11.8014 16.9844 12.0625V15.53L20.5527 14.1014C20.6728 14.0529 20.8012 14.0286 20.9307 14.0297C21.0602 14.0309 21.1881 14.0575 21.3073 14.1081C21.4265 14.1588 21.5345 14.2324 21.6253 14.3247C21.716 14.4171 21.7876 14.5264 21.8361 14.6465C21.8846 14.7665 21.9089 14.895 21.9078 15.0244C21.9066 15.1539 21.88 15.2819 21.8294 15.4011C21.7787 15.5202 21.7051 15.6283 21.6128 15.719C21.5204 15.8097 21.4111 15.8814 21.291 15.9299L17.5615 17.4212L19.7406 20.3312C19.8973 20.5401 19.9645 20.8026 19.9276 21.0611C19.8907 21.3195 19.7526 21.5527 19.5438 21.7094C19.3349 21.866 19.0724 21.9333 18.8139 21.8964C18.5555 21.8594 18.3223 21.7214 18.1656 21.5125L16 18.6246L13.8344 21.5125C13.7568 21.6159 13.6596 21.703 13.5484 21.7689C13.4372 21.8348 13.3141 21.8781 13.1861 21.8964C13.0581 21.9146 12.9278 21.9075 12.8026 21.8755C12.6773 21.8434 12.5597 21.7869 12.4562 21.7094C12.3528 21.6318 12.2657 21.5346 12.1998 21.4234C12.134 21.3122 12.0907 21.1891 12.0724 21.0611C12.0541 20.9331 12.0612 20.8028 12.0933 20.6776C12.1254 20.5523 12.1818 20.4347 12.2594 20.3312L14.4422 17.4212L10.709 15.9299C10.5888 15.8816 10.4793 15.81 10.3868 15.7193C10.2944 15.6286 10.2207 15.5205 10.17 15.4013C10.1194 15.2821 10.0928 15.154 10.0917 15.0245C10.0907 14.895 10.1152 14.7665 10.1639 14.6465ZM27.8125 7.14062V14.0312C27.8125 20.5183 24.6723 24.4496 22.0379 26.6054C19.2004 28.9261 16.3778 29.7148 16.2547 29.7468C16.0855 29.7928 15.9071 29.7928 15.7379 29.7468C15.6149 29.7148 12.7959 28.9261 9.95471 26.6054C7.32766 24.4496 4.1875 20.5183 4.1875 14.0312V7.14062C4.1875 6.61848 4.39492 6.11772 4.76413 5.74851C5.13335 5.3793 5.6341 5.17188 6.15625 5.17188H25.8438C26.3659 5.17188 26.8667 5.3793 27.2359 5.74851C27.6051 6.11772 27.8125 6.61848 27.8125 7.14062ZM25.8438 7.14062H6.15625V14.0312C6.15625 18.6209 7.85676 22.3381 11.2098 25.0821C12.6374 26.2497 14.2587 27.158 16 27.7657C17.7644 27.1472 19.4059 26.2225 20.8493 25.0341C24.1629 22.2951 25.8438 18.5926 25.8438 14.0312V7.14062Z" fill="#EC3B26"/>
</svg>
